<svg width="29" height="23" viewBox="0 0 29 23" fill="none" xmlns="http://www.w3.org/2000/svg">
<path d="M2.8875 22.6667C2.07083 22.6667 1.38542 22.4424 0.83125 21.9937C0.277083 21.5451 0 20.9903 0 20.3292C0 19.6681 0.277083 19.1132 0.83125 18.6646C1.38542 18.216 2.07083 17.9917 2.8875 17.9917C3.70417 17.9917 4.38958 18.216 4.94375 18.6646C5.49792 19.1132 5.775 19.6681 5.775 20.3292C5.775 20.9903 5.49792 21.5451 4.94375 21.9937C4.38958 22.4424 3.70417 22.6667 2.8875 22.6667ZM2.8875 13.6708C2.07083 13.6708 1.38542 13.4465 0.83125 12.9979C0.277083 12.5493 0 11.9944 0 11.3333C0 10.6722 0.277083 10.1174 0.83125 9.66875C1.38542 9.22014 2.07083 8.99583 2.8875 8.99583C3.70417 8.99583 4.38958 9.22014 4.94375 9.66875C5.49792 10.1174 5.775 10.6722 5.775 11.3333C5.775 11.9944 5.49792 12.5493 4.94375 12.9979C4.38958 13.4465 3.70417 13.6708 2.8875 13.6708ZM2.8875 4.675C2.07083 4.675 1.38542 4.45069 0.83125 4.00208C0.277083 3.55347 0 2.99861 0 2.3375C0 1.67639 0.277083 1.12153 0.83125 0.672917C1.38542 0.224305 2.07083 0 2.8875 0C3.70417 0 4.38958 0.224305 4.94375 0.672917C5.49792 1.12153 5.775 1.67639 5.775 2.3375C5.775 2.99861 5.49792 3.55347 4.94375 4.00208C4.38958 4.45069 3.70417 4.675 2.8875 4.675ZM14 13.6708C13.1833 13.6708 12.4979 13.4465 11.9437 12.9979C11.3896 12.5493 11.1125 11.9944 11.1125 11.3333C11.1125 10.6722 11.3896 10.1174 11.9437 9.66875C12.4979 9.22014 13.1833 8.99583 14 8.99583C14.8167 8.99583 15.5021 9.22014 16.0562 9.66875C16.6104 10.1174 16.8875 10.6722 16.8875 11.3333L14 13.6708ZM14 4.675C13.1833 4.675 12.4979 4.45069 11.9437 4.00208C11.3896 3.55347 11.1125 2.99861 11.1125 2.3375C11.1125 1.67639 11.3896 1.12153 11.9437 0.672917C12.4979 0.224305 13.1833 0 14 0C14.8167 0 15.5021 0.224305 16.0562 0.672917C16.6104 1.12153 16.8875 1.67639 16.8875 2.3375C16.8875 2.99861 16.6104 3.55347 16.0562 4.00208C15.5021 4.45069 14.8167 4.675 14 4.675ZM12.25 22.6667V20.3646L22.8813 11.7583L25.725 14.0604L15.0938 22.6667H12.25ZM25.1125 4.675C24.2958 4.675 23.6104 4.45069 23.0562 4.00208C22.5021 3.55347 22.225 2.99861 22.225 2.3375C22.225 1.67639 22.5021 1.12153 23.0562 0.672917C23.6104 0.224305 24.2958 0 25.1125 0C25.9292 0 26.6146 0.224305 27.1687 0.672917C27.7229 1.12153 28 1.67639 28 2.3375C28 2.99861 27.7229 3.55347 27.1687 4.00208C26.6146 4.45069 25.9292 4.675 25.1125 4.675ZM26.8625 13.1396L24.0188 10.8375L25.1125 9.95208C25.3458 9.76319 25.6375 9.66285 25.9875 9.65104C26.3375 9.63924 26.6292 9.72778 26.8625 9.91667L28 10.8375C28.2333 11.0264 28.3427 11.2625 28.3281 11.5458C28.3135 11.8292 28.1896 12.0653 27.9563 12.2542L26.8625 13.1396Z" fill="black"/>
</svg>
